<svg xmlns="http://www.w3.org/2000/svg" xmlns:xlink="http://www.w3.org/1999/xlink" viewBox="0 0 518 191"><defs><style>.cls-1{isolation:isolate;}.cls-2{mix-blend-mode:soft-light;}.cls-3{fill:url(#linear-gradient);}.cls-4{fill:url(#linear-gradient-2);}.cls-5{fill:#9ca0b3;}.cls-6{fill:#847891;}.cls-7{fill:#fff;}.cls-8{fill:#685d79;}.cls-9{fill:#7a7e96;}.cls-10{opacity:0.3;}.cls-11{fill:url(#linear-gradient-3);}.cls-12{fill:url(#linear-gradient-4);}</style><linearGradient id="linear-gradient" x1="229" y1="95.5" x2="404" y2="95.5" gradientUnits="userSpaceOnUse"><stop offset="0" stop-color="#fff"/><stop offset="1"/></linearGradient><linearGradient id="linear-gradient-2" x1="1" y1="95.5" x2="176" y2="95.5" xlink:href="#linear-gradient"/><linearGradient id="linear-gradient-3" x1="114" y1="95.5" x2="289" y2="95.5" xlink:href="#linear-gradient"/><linearGradient id="linear-gradient-4" x1="342" y1="95.5" x2="517" y2="95.5" xlink:href="#linear-gradient"/></defs><title>Asset 2</title><g class="cls-1"><g id="Layer_2" data-name="Layer 2"><g id="Layer_1-2" data-name="Layer 1"><g class="cls-2"><polygon class="cls-3" points="229 0 290 0 404 191 343 191 229 0"/></g><g class="cls-2"><polygon class="cls-4" points="1 0 62 0 176 191 115 191 1 0"/></g><polygon class="cls-5" points="0 0 61 0 175 191 114 191 0 0"/><polygon class="cls-6" points="228 0 289 0 403 191 342 191 228 0"/><polygon class="cls-7" points="115.88 190.5 229.28 0.5 289.12 0.5 175.72 190.5 115.88 190.5"/><path d="M288.24,1,175.43,190H116.76L229.57,1h58.67M290,0H229L115,191h61L290,0Z"/><polygon class="cls-8" points="518 0 457 0 343 191 404 191 518 0"/><polygon class="cls-9" points="290 0 229 0 115 191 176 191 290 0"/><polygon class="cls-10" points="114 191 140.02 132.39 144.5 139.9 114 191"/><polygon class="cls-10" points="342 191 368.02 132.39 372.5 139.9 342 191"/><g class="cls-2"><polygon class="cls-11" points="289 0 228 0 114 191 175 191 289 0"/></g><g class="cls-2"><polygon class="cls-12" points="517 0 456 0 342 191 403 191 517 0"/></g><polygon class="cls-10" points="289 0 264.62 61.36 258 51.94 289 0"/></g></g></g></svg>