<svg xmlns="http://www.w3.org/2000/svg" xmlns:xlink="http://www.w3.org/1999/xlink" viewBox="0 0 518 191"><defs><style>.cls-1{isolation:isolate;}.cls-2{fill:#feae8d;}.cls-3{fill:#6e2afd;}.cls-4{fill:#fff;}.cls-5{fill:#b75be9;}.cls-6{fill:#c8508a;}.cls-7{mix-blend-mode:soft-light;}.cls-8{fill:url(#linear-gradient);}.cls-9{fill:url(#linear-gradient-2);}.cls-10{opacity:0.3;}</style><linearGradient id="linear-gradient" x1="115" y1="95.5" x2="290" y2="95.5" gradientUnits="userSpaceOnUse"><stop offset="0" stop-color="#fff"/><stop offset="1"/></linearGradient><linearGradient id="linear-gradient-2" x1="343" y1="95.5" x2="518" y2="95.5" xlink:href="#linear-gradient"/></defs><title>Asset 4</title><g class="cls-1"><g id="Layer_2" data-name="Layer 2"><g id="Layer_1-2" data-name="Layer 1"><polygon class="cls-2" points="0 0 61 0 175 191 114 191 0 0"/><polygon class="cls-3" points="228 0 289 0 403 191 342 191 228 0"/><polygon class="cls-4" points="115.88 190.5 229.28 0.5 289.12 0.5 175.72 190.5 115.88 190.5"/><path d="M288.24,1,175.43,190H116.76L229.57,1h58.67M290,0H229L115,191h61L290,0Z"/><polygon class="cls-5" points="518 0 457 0 343 191 404 191 518 0"/><polygon class="cls-6" points="290 0 229 0 115 191 176 191 290 0"/><g class="cls-7"><polygon class="cls-8" points="290 0 229 0 115 191 176 191 290 0"/></g><g class="cls-7"><polygon class="cls-9" points="518 0 457 0 343 191 404 191 518 0"/></g><polygon class="cls-10" points="114 191 132.72 120.17 144.5 139.9 114 191"/><polygon class="cls-10" points="342 191 360.72 120.17 372.5 139.9 342 191"/><polygon class="cls-10" points="289 0 274.97 78.69 259 51.94 289 0"/></g></g></g></svg>