<svg xmlns="http://www.w3.org/2000/svg" xmlns:xlink="http://www.w3.org/1999/xlink" viewBox="0 0 1746.13 280.5"><defs><style>.cls-1,.cls-2,.cls-3{stroke-miterlimit:10;}.cls-1{stroke-width:8px;stroke:url(#New_Gradient_Swatch_1);}.cls-2{font-size:165px;stroke-width:5px;}.cls-2,.cls-3{stroke:#000;font-family:LevenimMT, Levenim MT;}.cls-3{font-size:36px;fill:none;letter-spacing:0.01em;}.cls-4{fill:url(#New_Gradient_Swatch_1-2);}</style><linearGradient id="New_Gradient_Swatch_1" y1="267.04" x2="1746.13" y2="267.04" gradientUnits="userSpaceOnUse"><stop offset="0" stop-color="#feae8d"/><stop offset="0.06" stop-color="#f9a58d"/><stop offset="0.16" stop-color="#ea8b8c"/><stop offset="0.28" stop-color="#d2628b"/><stop offset="0.33" stop-color="#c8508a"/><stop offset="0.64" stop-color="#6e2afd"/><stop offset="0.99" stop-color="#b75be9"/></linearGradient><linearGradient id="New_Gradient_Swatch_1-2" x1="490.95" y1="50.58" x2="674.36" y2="50.58" xlink:href="#New_Gradient_Swatch_1"/></defs><title>Asset 1</title><g id="Layer_2" data-name="Layer 2"><g id="Layer_1-2" data-name="Layer 1"><path class="cls-1" d="M0,267H1746.13"/><text class="cls-2" transform="translate(477.65 216.04)">Developer</text><text></text><text></text><circle cx="1321.32" cy="208.23" r="8.5"/><text class="cls-3" transform="translate(487.82 63.83)">Passionate</text><path class="cls-4" d="M507.1,44.87c0,3.52-1.71,5.7-5.15,6.52a33.69,33.69,0,0,1-6.58.42h-1.85v12H491V38h5.15a29.67,29.67,0,0,1,6,.39,6.43,6.43,0,0,1,3.69,2.32A6.68,6.68,0,0,1,507.1,44.87Zm-2.65,0a4.21,4.21,0,0,0-.7-2.36A3.84,3.84,0,0,0,501.89,41a11.11,11.11,0,0,0-3.79-.46h-4.58v8.75l4.39.05q4.45.06,5.84-2.05A4.24,4.24,0,0,0,504.45,44.87Z"/><path class="cls-4" d="M531.1,63.83h-2.44V60.54A9.56,9.56,0,0,1,521,64.32a9.25,9.25,0,0,1-7-3,9.9,9.9,0,0,1-2.81-7.12,9.72,9.72,0,0,1,2.87-7.07,9.41,9.41,0,0,1,7-2.94,8.93,8.93,0,0,1,7.6,4V44.71h2.44Zm-2.28-9.45a7.71,7.71,0,0,0-2.15-5.53,7.16,7.16,0,0,0-5.41-2.24,7,7,0,0,0-6.54,3.84,7.68,7.68,0,0,0,0,7.72A7.49,7.49,0,0,0,517.5,61a7.29,7.29,0,0,0,3.74,1,7.62,7.62,0,0,0,3.82-1,7.07,7.07,0,0,0,2.78-2.75A7.88,7.88,0,0,0,528.82,54.38Z"/><path class="cls-4" d="M546.45,58.69a5.33,5.33,0,0,1-1.67,4,5.69,5.69,0,0,1-4.11,1.6,6.78,6.78,0,0,1-5.64-2.7l1.54-1.76a5.37,5.37,0,0,0,4,2.11,3.74,3.74,0,0,0,2.46-.9,2.85,2.85,0,0,0,1.08-2.28,3.09,3.09,0,0,0-1.28-2.43,15.71,15.71,0,0,0-2.49-1.48,10.94,10.94,0,0,1-3.11-2.16,4.89,4.89,0,0,1-1.33-3.44,4.79,4.79,0,0,1,1.5-3.65,5.26,5.26,0,0,1,3.74-1.42,7.83,7.83,0,0,1,5.31,2.59l-1.58,1.63A5.68,5.68,0,0,0,541,46.54a3,3,0,0,0-2,.75,2.34,2.34,0,0,0-.88,1.87q0,1.89,3.65,3.77A12.94,12.94,0,0,1,545,55.15,4.93,4.93,0,0,1,546.45,58.69Z"/><path class="cls-4" d="M560.61,58.69a5.36,5.36,0,0,1-1.67,4,5.73,5.73,0,0,1-4.12,1.6,6.8,6.8,0,0,1-5.64-2.7l1.55-1.76a5.35,5.35,0,0,0,4,2.11,3.74,3.74,0,0,0,2.46-.9,2.85,2.85,0,0,0,1.08-2.28A3.07,3.07,0,0,0,557,56.36a15.71,15.71,0,0,0-2.49-1.48,10.87,10.87,0,0,1-3.1-2.16A4.9,4.9,0,0,1,550,49.28a4.76,4.76,0,0,1,1.51-3.65,5.24,5.24,0,0,1,3.73-1.42,7.79,7.79,0,0,1,5.31,2.59L559,48.43a5.68,5.68,0,0,0-3.84-1.89,3,3,0,0,0-2,.75,2.36,2.36,0,0,0-.87,1.87q0,1.89,3.64,3.77a13,13,0,0,1,3.27,2.22A5,5,0,0,1,560.61,58.69Z"/><path class="cls-4" d="M568,38.86a2,2,0,0,1-.59,1.43,2,2,0,0,1-1.44.59,1.94,1.94,0,0,1-1.42-.6,2,2,0,0,1,0-2.85,1.9,1.9,0,0,1,1.42-.6,2,2,0,0,1,2,2Zm-.75,25h-2.5V44.71h2.5Z"/><path class="cls-4" d="M591.52,54.32a9.72,9.72,0,0,1-2.87,7.11,10.14,10.14,0,0,1-14.17,0,9.67,9.67,0,0,1-2.88-7.12,9.94,9.94,0,0,1,2.64-6.89,10,10,0,0,1,14.64,0A10,10,0,0,1,591.52,54.32Zm-2.52,0a7.69,7.69,0,0,0-2.14-5.44,7.26,7.26,0,0,0-10.58,0,7.7,7.7,0,0,0-2.15,5.44,7.88,7.88,0,0,0,1,3.81A7,7,0,0,0,577.82,61a7.44,7.44,0,0,0,3.75,1A6.91,6.91,0,0,0,588,58.23,7.84,7.84,0,0,0,589,54.37Z"/><path class="cls-4" d="M613,63.83h-2.46V54.72a22.36,22.36,0,0,0-.28-4.41,4.49,4.49,0,0,0-4.8-3.81,6,6,0,0,0-4,1.47,6.81,6.81,0,0,0-2.32,3.66,24.69,24.69,0,0,0-.35,5.2v7h-2.48V44.71h2.48v3.42a8.7,8.7,0,0,1,7.16-3.92,6.91,6.91,0,0,1,3.77,1.07,6.38,6.38,0,0,1,2.47,2.93A15.7,15.7,0,0,1,613,54Z"/><path class="cls-4" d="M637.46,63.83H635V60.54a9.6,9.6,0,0,1-7.68,3.78,9.28,9.28,0,0,1-7-3,9.94,9.94,0,0,1-2.81-7.12,9.76,9.76,0,0,1,2.87-7.07,9.43,9.43,0,0,1,7-2.94,9,9,0,0,1,7.61,4V44.71h2.44Zm-2.29-9.45A7.67,7.67,0,0,0,633,48.85a7.14,7.14,0,0,0-5.41-2.24,7,7,0,0,0-6.54,3.84,7.75,7.75,0,0,0,0,7.72A7.57,7.57,0,0,0,623.85,61a7.33,7.33,0,0,0,3.75,1,7.65,7.65,0,0,0,3.82-1,7.2,7.2,0,0,0,2.78-2.75A7.87,7.87,0,0,0,635.17,54.38Z"/><path class="cls-4" d="M651.72,46.83h-3.9v17h-2.5v-17H642V44.71h3.36v-7.1h2.5v7.1h3.9Z"/><path class="cls-4" d="M674.36,54.46H657.19a8,8,0,0,0,2,5.35,6.7,6.7,0,0,0,5.2,2.25,7.61,7.61,0,0,0,5.18-1.86,11.53,11.53,0,0,0,2.09-2.71l2.07,1.09a10.07,10.07,0,0,1-5.36,5.09,10.19,10.19,0,0,1-3.78.65,9.61,9.61,0,0,1-7.13-2.84,9.77,9.77,0,0,1-2.82-7.16,10.25,10.25,0,0,1,2.23-6.48,9.13,9.13,0,0,1,7.58-3.63,9.41,9.41,0,0,1,7.8,3.71A10.36,10.36,0,0,1,674.36,54.46Zm-2.69-2.14a7.1,7.1,0,0,0-3.92-5,7.73,7.73,0,0,0-3.25-.71,7,7,0,0,0-4.83,1.8,8,8,0,0,0-2.23,3.93Z"/><text></text><text></text></g></g></svg>