<svg xmlns="http://www.w3.org/2000/svg" xmlns:xlink="http://www.w3.org/1999/xlink" viewBox="0 0 700 700"><defs><style>.cls-1{isolation:isolate;}.cls-2{mix-blend-mode:soft-light;}.cls-3{fill:url(#linear-gradient);}.cls-4{fill:url(#linear-gradient-2);}.cls-5{fill:#f7da98;}.cls-6{fill:#2c8478;}.cls-7{fill:#fff;}.cls-8{fill:#6e785d;}.cls-9{fill:#faa376;}.cls-10{opacity:0.3;}.cls-11{fill:url(#linear-gradient-3);}.cls-12{fill:url(#linear-gradient-4);}</style><linearGradient id="linear-gradient" x1="320" y1="303.5" x2="495" y2="303.5" gradientUnits="userSpaceOnUse"><stop offset="0" stop-color="#fff"/><stop offset="1"/></linearGradient><linearGradient id="linear-gradient-2" x1="92" y1="303.5" x2="267" y2="303.5" xlink:href="#linear-gradient"/><linearGradient id="linear-gradient-3" x1="206" y1="303.5" x2="381" y2="303.5" xlink:href="#linear-gradient"/><linearGradient id="linear-gradient-4" x1="434" y1="303.5" x2="609" y2="303.5" xlink:href="#linear-gradient"/></defs><title>Artboard 1</title><g class="cls-1"><g id="Layer_1" data-name="Layer 1"><g class="cls-2"><polygon class="cls-3" points="320 208 381 208 495 399 434 399 320 208"/></g><g class="cls-2"><polygon class="cls-4" points="92 208 153 208 267 399 206 399 92 208"/></g><polygon class="cls-5" points="92 208 153 208 267 399 206 399 92 208"/><polygon class="cls-6" points="320 208 381 208 495 399 434 399 320 208"/><polygon class="cls-7" points="206.88 398.5 320.28 208.5 380.12 208.5 266.72 398.5 206.88 398.5"/><path d="M379.24,209,266.43,398H207.76L320.57,209h58.67m1.76-1H320L206,399h61L381,208Z"/><polygon class="cls-8" points="609 208 548 208 434 399 495 399 609 208"/><polygon class="cls-9" points="381 208 320 208 206 399 267 399 381 208"/><polygon class="cls-10" points="206 399 232.02 340.39 236.5 347.9 206 399"/><polygon class="cls-10" points="434 399 460.02 340.39 464.5 347.9 434 399"/><g class="cls-2"><polygon class="cls-11" points="381 208 320 208 206 399 267 399 381 208"/></g><g class="cls-2"><polygon class="cls-12" points="609 208 548 208 434 399 495 399 609 208"/></g><polygon class="cls-10" points="381 208 356.62 269.36 350 259.94 381 208"/></g></g></svg>